<svg width="55" height="32" viewBox="0 0 55 32" fill="none" xmlns="http://www.w3.org/2000/svg">
<path d="M52.1148 0H20.3771C19.6118 0 18.878 0.30398 18.3369 0.845069C17.7958 1.38616 17.4918 2.12003 17.4918 2.88525V28.8525C17.4918 29.6177 17.7958 30.3515 18.3369 30.8926C18.878 31.4337 19.6118 31.7377 20.3771 31.7377H52.1148C52.88 31.7377 53.6138 31.4337 54.1549 30.8926C54.696 30.3515 55 29.6177 55 28.8525V2.88525C55 2.12003 54.696 1.38616 54.1549 0.845069C53.6138 0.30398 52.88 0 52.1148 0ZM20.3771 8.65574H34.8033V23.082H20.3771V8.65574ZM37.6885 5.77049V2.88525H43.459V5.77049H37.6885ZM34.8033 5.77049H29.0328V2.88525H34.8033V5.77049ZM34.8033 25.9672V28.8525H29.0328V25.9672H34.8033ZM37.6885 25.9672H43.459V28.8525H37.6885V25.9672ZM37.6885 23.082V8.65574H52.1148V23.082H37.6885ZM52.1148 5.77049H46.3443V2.88525H52.1148V5.77049ZM26.1475 2.88525V5.77049H20.3771V2.88525H26.1475ZM20.3771 25.9672H26.1475V28.8525H20.3771V25.9672ZM52.1148 28.8525H46.3443V25.9672H52.1148V28.8525Z" fill="white"/>
<path d="M34.6229 0H2.88525C2.12003 0 1.38616 0.30398 0.845069 0.845069C0.30398 1.38616 0 2.12003 0 2.88525V28.8525C0 29.6177 0.30398 30.3515 0.845069 30.8926C1.38616 31.4337 2.12003 31.7377 2.88525 31.7377H34.6229C35.3882 31.7377 36.122 31.4337 36.6631 30.8926C37.2042 30.3515 37.5082 29.6177 37.5082 28.8525V2.88525C37.5082 2.12003 37.2042 1.38616 36.6631 0.845069C36.122 0.30398 35.3882 0 34.6229 0ZM2.88525 8.65574H17.3115V23.082H2.88525V8.65574ZM20.1967 5.77049V2.88525H25.9672V5.77049H20.1967ZM17.3115 5.77049H11.541V2.88525H17.3115V5.77049ZM17.3115 25.9672V28.8525H11.541V25.9672H17.3115ZM20.1967 25.9672H25.9672V28.8525H20.1967V25.9672ZM20.1967 23.082V8.65574H34.6229V23.082H20.1967ZM34.6229 5.77049H28.8525V2.88525H34.6229V5.77049ZM8.65574 2.88525V5.77049H2.88525V2.88525H8.65574ZM2.88525 25.9672H8.65574V28.8525H2.88525V25.9672ZM34.6229 28.8525H28.8525V25.9672H34.6229V28.8525Z" fill="white"/>
<path d="M26.8623 19H23.7617V11.8027H26.8623C27.3083 11.8092 27.6794 11.8613 27.9756 11.959C28.4801 12.125 28.8887 12.4294 29.2012 12.8721C29.4518 13.2301 29.6227 13.6175 29.7139 14.0342C29.805 14.4508 29.8506 14.848 29.8506 15.2256C29.8506 16.1826 29.6585 16.9932 29.2744 17.6572C28.7536 18.5524 27.9495 19 26.8623 19ZM27.9805 13.6387C27.7493 13.248 27.292 13.0527 26.6084 13.0527H25.2217V17.75H26.6084C27.318 17.75 27.8128 17.4001 28.0928 16.7002C28.2458 16.3161 28.3223 15.8587 28.3223 15.3281C28.3223 14.5957 28.2083 14.0326 27.9805 13.6387Z" fill="white"/>
<path d="M12.8643 13.0771H9.25586V14.7324H12.415V15.9824H9.25586V19H7.76172V11.8125H12.8643V13.0771Z" fill="white"/>
<path d="M45.0479 19H41.7861V11.8027H45.2822C46.1644 11.8158 46.7894 12.0713 47.1572 12.5693C47.3786 12.8753 47.4893 13.2415 47.4893 13.668C47.4893 14.1074 47.3786 14.4606 47.1572 14.7275C47.0335 14.8773 46.8512 15.014 46.6104 15.1377C46.9782 15.2712 47.2549 15.4827 47.4404 15.7725C47.6292 16.0622 47.7236 16.4137 47.7236 16.8271C47.7236 17.2536 47.6162 17.6361 47.4014 17.9746C47.2646 18.1992 47.0938 18.388 46.8887 18.541C46.6576 18.7168 46.3841 18.8372 46.0684 18.9023C45.7559 18.9674 45.4157 19 45.0479 19ZM45.0137 15.8311H43.2217V17.75H44.9893C45.305 17.75 45.5508 17.7077 45.7266 17.623C46.0456 17.4668 46.2051 17.1673 46.2051 16.7246C46.2051 16.3503 46.0505 16.0931 45.7412 15.9531C45.5687 15.875 45.3262 15.8343 45.0137 15.8311ZM45.7607 14.459C45.9561 14.3418 46.0537 14.1318 46.0537 13.8291C46.0537 13.4938 45.9235 13.2725 45.6631 13.165C45.4385 13.0902 45.152 13.0527 44.8037 13.0527H43.2217V14.6396H44.9893C45.305 14.6396 45.5622 14.5794 45.7607 14.459Z" fill="white"/>
</svg>
